<svg xmlns="http://www.w3.org/2000/svg" viewBox="0 0 512 512">
  <defs>
    <linearGradient id="bg" x1="0" y1="0" x2="1" y2="1">
      <stop offset="0" stop-color="#ff8793"/>
      <stop offset="0.48" stop-color="#ef4444"/>
      <stop offset="1" stop-color="#3b82f6"/>
    </linearGradient>
    <filter id="shadow" x="-20%" y="-20%" width="140%" height="140%">
      <feDropShadow dx="0" dy="18" stdDeviation="20" flood-color="#10213c" flood-opacity=".22"/>
    </filter>
  </defs>
  <rect width="512" height="512" rx="124" fill="#f7f7f7"/>
  <rect x="62" y="62" width="388" height="388" rx="108" fill="url(#bg)" filter="url(#shadow)"/>
  <path d="M146 164c0-22 18-40 40-40h140c22 0 40 18 40 40v184c0 22-18 40-40 40H186c-22 0-40-18-40-40V164Z" fill="#fff" fill-opacity=".93"/>
  <path d="M182 190h148M182 238h148M182 286h92" stroke="#10213c" stroke-width="18" stroke-linecap="round" opacity=".82"/>
  <circle cx="318" cy="316" r="50" fill="#3b82f6"/>
  <path d="m296 316 15 15 30-34" fill="none" stroke="#fff" stroke-width="14" stroke-linecap="round" stroke-linejoin="round"/>
</svg>
